# xmcd
#
# Track frame offsets:
#	150
#	18275
#	42560
#	68382
#	89165
#	105772
#	130312
#	154437
#	165995
#	197755
#	215055
#
# Disc length: 3244 seconds
#
# Revision: 2
# Processed by: cddbd v1.5.2PL0 Copyright (c) Steve Scherf et al.
# Submitted via: audiograbber 1.83.01
#
DISCID=920caa0b
DTITLE=Various Artist - Antone's Anniversary Anthology: Vol. 2
DYEAR=1991
DGENRE=Blues
TTITLE0=Jimmy Rogers - Chicago Bound 
TTITLE1=Pinetop Perkins - Trouble Blues 
TTITLE2=Calvin Jones - Shake for Me 
TTITLE3=Buddy Guy - Everything is Going to be Alright 
TTITLE4=Otis Rush - Natural Ball 
TTITLE5=Snooky Pryor - Sloppy Drunk 
TTITLE6=James Cotton - Moanin' at Midnight 
TTITLE7=James Cotton - Evan Shuffle
TTITLE8=Albert Collins - Black Cat Bone 
TTITLE9=Lazy Lester - Same Thing could Happen to You 
TTITLE10=Matt Murphy and Derek O'Brien - High Jack 
EXTD=YEAR: 1991
EXTT0=
EXTT1=
EXTT2=
EXTT3=
EXTT4=
EXTT5=
EXTT6=
EXTT7=
EXTT8=
EXTT9=
EXTT10=
PLAYORDER=
